<?xml version="1.0" encoding="UTF-8"?>
<!DOCTYPE svg PUBLIC "-//W3C//DTD SVG 1.1//EN" "http://www.w3.org/Graphics/SVG/1.1/DTD/svg11.dtd">
<!-- Creator: CorelDRAW 2020 (64-Bit) -->
<svg xmlns="http://www.w3.org/2000/svg" xml:space="preserve" width="21cm" height="21cm" version="1.1" style="shape-rendering:geometricPrecision; text-rendering:geometricPrecision; image-rendering:optimizeQuality; fill-rule:evenodd; clip-rule:evenodd"
viewBox="0 0 21000 21000"
 xmlns:xlink="http://www.w3.org/1999/xlink"
 xmlns:xodm="http://www.corel.com/coreldraw/odm/2003">
 <defs>
  <style type="text/css">
   <![CDATA[
    .fil2 {fill:#1FB8F1}
    .fil1 {fill:#3FC2F3}
    .fil0 {fill:#7FD6F7}
   ]]>
  </style>
 </defs>
 <g id="Layer_x0020_1">
  <metadata id="CorelCorpID_0Corel-Layer"/>
  <g id="_2037135935664">
   <g id="_3016355242880">
    <path class="fil0" d="M10555.7 1836.68c0,0 4187.14,2948.28 4529.4,8639.35 342.26,5691.07 -4549.1,8698.61 -4549.1,8698.61 0,0 -4608.38,-2981.18 -4555.75,-8698.61 52.66,-5717.43 4575.46,-8639.35 4575.46,-8639.35l-0.01 0z"/>
    <path class="fil0" d="M20341.25 4875.65c0,0 1791.34,4797.43 -1139.38,9687.9 -2930.68,4890.47 -8665.92,4611.09 -8665.92,4611.09 0,0 -2120.41,-5062.47 1151.1,-9751.66 3271.51,-4689.23 8654.22,-4547.3 8654.22,-4547.3l-0.02 -0.03z"/>
    <path class="fil0" d="M774.88 4845.47c0,0 5120.43,73.48 8612.47,4580.32 3492.04,4506.8 1148.63,9748.89 1148.63,9748.89 0,0 -5486.88,136.86 -8667.63,-4614.39 -3180.76,-4751.26 -1093.47,-9714.8 -1093.47,-9714.8l0 -0.02z"/>
    <path class="fil1" d="M10535.98 19174.64c0,0 -2120.41,-5062.47 1151.1,-9751.66 777.25,-1114.05 1673.66,-1954.96 2588.72,-2590.35 418.73,1052.38 726.57,2267.46 809.33,3643.42 342.26,5691.07 -4549.1,8698.6 -4549.1,8698.6l-0.05 -0.01z"/>
    <path class="fil1" d="M10535.98 19174.64c0,0 -4608.37,-2981.18 -4555.75,-8698.61 12.56,-1361.73 278.99,-2564.5 677.17,-3607.4 941.6,633.54 1883.57,1464.78 2729.95,2557.11 3492.04,4506.81 1148.63,9748.9 1148.63,9748.9z"/>
    <path class="fil2" d="M10583.79 11464.6c1649.85,3910.55 -47.81,7710.04 -47.81,7710.04 0,0 -1550.79,-3704 47.81,-7710.04z"/>
   </g>
  </g>
 </g>
</svg>
